<?xml version="1.0" standalone="no"?>
<!DOCTYPE svg PUBLIC "-//W3C//DTD SVG 20010904//EN"
 "http://www.w3.org/TR/2001/REC-SVG-20010904/DTD/svg10.dtd">
<svg version="1.0" xmlns="http://www.w3.org/2000/svg"
 width="500.000000pt" height="109.000000pt" viewBox="0 0 500.000000 109.000000"
 preserveAspectRatio="xMidYMid meet">

<g transform="translate(0.000000,109.000000) scale(0.100000,-0.100000)"
fill="#000000" stroke="none">
<path d="M998 953 c7 -3 16 -2 19 1 4 3 -2 6 -13 5 -11 0 -14 -3 -6 -6z"/>
<path d="M1073 953 c26 -2 67 -2 90 0 23 2 2 3 -48 3 -49 0 -68 -1 -42 -3z"/>
<path d="M1224 840 c0 -58 1 -81 3 -52 2 28 2 76 0 105 -2 28 -3 5 -3 -53z"/>
<path d="M960 813 c-3 -67 -1 -119 3 -114 4 4 6 59 5 122 l-3 114 -5 -122z"/>
<path d="M2780 570 l0 -200 35 0 35 0 0 93 c0 114 13 140 68 135 31 -3 37 -7
45 -37 4 -19 7 -70 5 -113 l-3 -78 39 0 38 0 -4 121 c-4 118 -5 122 -32 145
-35 31 -93 32 -130 3 l-26 -20 0 75 0 76 -35 0 -35 0 0 -200z"/>
<path d="M3117 764 c-14 -15 -6 -54 13 -64 31 -16 62 4 58 38 -2 22 -9 28 -33
30 -17 2 -34 0 -38 -4z"/>
<path d="M3270 570 l0 -200 35 0 35 0 0 60 c0 33 3 60 8 59 4 0 26 -27 49 -60
38 -53 46 -59 78 -59 19 0 35 3 35 6 0 3 -22 37 -50 75 -27 38 -50 71 -50 75
0 3 20 31 45 63 25 31 45 60 45 64 0 4 -15 7 -34 7 -29 0 -39 -8 -77 -57 l-44
-56 -3 111 -3 112 -34 0 -35 0 0 -200z"/>
<path d="M1530 560 l2 -190 39 0 39 0 0 80 c0 44 3 80 8 80 4 -1 36 -37 71
-80 62 -79 64 -80 109 -80 42 0 44 1 30 18 -61 70 -138 172 -138 183 0 7 26
44 58 83 81 98 80 96 34 96 -36 0 -42 -5 -103 -80 l-64 -80 -3 80 -3 80 -40 0
-40 0 1 -190z"/>
<path d="M704 585 c0 -66 1 -92 3 -57 2 34 2 88 0 120 -2 31 -3 3 -3 -63z"/>
<path d="M773 693 c31 -2 83 -2 115 0 31 2 5 3 -58 3 -63 0 -89 -1 -57 -3z"/>
<path d="M1253 693 c42 -2 112 -2 155 0 42 1 7 3 -78 3 -85 0 -120 -2 -77 -3z"/>
<path d="M1120 670 c-13 -8 -12 -10 3 -10 9 0 17 5 17 10 0 12 -1 12 -20 0z"/>
<path d="M1911 642 c-41 -20 -46 -31 -28 -56 13 -18 15 -18 38 -3 25 18 94 23
103 8 14 -22 -9 -41 -61 -51 -94 -20 -130 -83 -82 -144 17 -21 29 -26 66 -26
29 0 53 6 65 17 17 15 19 15 36 0 10 -10 33 -17 50 -17 29 0 32 3 32 30 0 19
-5 30 -14 30 -11 0 -15 21 -18 91 -3 85 -5 92 -31 115 -35 30 -105 33 -156 6z
m119 -155 c0 -49 -40 -78 -84 -61 -19 7 -21 49 -4 60 10 6 58 20 81 23 4 1 7
-9 7 -22z"/>
<path d="M2180 542 c0 -106 2 -122 21 -146 27 -35 101 -37 136 -4 l23 21 0
-21 c0 -18 6 -22 35 -22 l35 0 0 145 0 145 -35 0 -35 0 0 -93 c0 -111 -13
-137 -65 -137 -42 0 -44 7 -48 135 l-2 90 -32 3 -33 3 0 -119z"/>
<path d="M2545 648 c-31 -17 -45 -39 -45 -72 1 -51 31 -77 103 -90 42 -8 56
-28 36 -52 -16 -19 -63 -12 -91 13 -18 16 -20 15 -41 -6 l-22 -22 28 -25 c23
-20 39 -24 88 -24 54 0 64 3 91 30 26 27 30 36 24 68 -6 43 -24 58 -81 72 -52
13 -70 24 -70 41 0 18 71 25 91 8 12 -10 18 -8 34 9 26 27 25 29 -10 47 -34
17 -106 19 -135 3z"/>
<path d="M3115 648 c-3 -8 -4 -72 -3 -144 l3 -129 38 -3 38 -3 -3 143 -3 143
-33 3 c-20 2 -34 -2 -37 -10z"/>
<path d="M1088 623 c7 -3 16 -2 19 1 4 3 -2 6 -13 5 -11 0 -14 -3 -6 -6z"/>
<path d="M982 590 c0 -14 2 -19 5 -12 2 6 2 18 0 25 -3 6 -5 1 -5 -13z"/>
<path d="M1071 594 c0 -11 3 -14 6 -6 3 7 2 16 -1 19 -3 4 -6 -2 -5 -13z"/>
<path d="M1107 589 c4 -13 8 -18 11 -10 2 7 -1 18 -6 23 -8 8 -9 4 -5 -13z"/>
<path d="M1191 574 c0 -11 3 -14 6 -6 3 7 2 16 -1 19 -3 4 -6 -2 -5 -13z"/>
<path d="M1025 500 c10 -11 20 -20 23 -20 3 0 -3 9 -13 20 -10 11 -20 20 -23
20 -3 0 3 -9 13 -20z"/>
<path d="M1077 459 c7 -7 15 -10 18 -7 3 3 -2 9 -12 12 -14 6 -15 5 -6 -5z"/>
<path d="M700 438 c0 -5 58 -8 130 -8 l129 0 4 -127 3 -128 2 132 2 132 -135
3 c-74 2 -135 0 -135 -4z"/>
<path d="M1221 413 c2 -24 2 -24 6 -6 4 21 10 23 121 26 l117 3 -122 2 -123 2
1 -27z"/>
<path d="M1224 290 c0 -52 1 -74 3 -47 2 26 2 68 0 95 -2 26 -3 4 -3 -48z"/>
<path d="M1038 183 c34 -2 90 -2 125 0 34 2 6 3 -63 3 -69 0 -97 -1 -62 -3z"/>
</g>
</svg>
